# xmcd
#
# Track frame offsets:
#	150
#	13661
#	25629
#	40262
#	54303
#	67428
#	79985
#	94307
#	109530
#	123664
#	137474
#	150261
#	163793
#	177464
#	189385
#
# Disc length: 2805 seconds
#
# Revision: 1
# Processed by: cddbd v1.5.1PL0 Copyright (c) Steve Scherf et al.
# Submitted via: audiograbber 1.80
#
DISCID=c40af30f
DTITLE=Roy Martin - The Way You Move My Heart
DYEAR=1900
DGENRE=
TTITLE0=The Way You Move My Heart
TTITLE1=Up To No Good
TTITLE2=In A Moment Of Weakness
TTITLE3=Right Where I Need To Be
TTITLE4=It Hurts Sometimes
TTITLE5=I Hit The Road
TTITLE6=The Lion And The Lamb
TTITLE7=One Side Of A Two Story House
TTITLE8=True Love Never Dies
TTITLE9=Looking Glas
TTITLE10=A Fork In The Road
TTITLE11=She's My Takamine
TTITLE12=The Old Man In The Moon
TTITLE13=I'm Gonna Be There
TTITLE14=Her Man (live)
EXTD=
EXTT0=
EXTT1=
EXTT2=
EXTT3=
EXTT4=
EXTT5=
EXTT6=
EXTT7=
EXTT8=
EXTT9=
EXTT10=
EXTT11=
EXTT12=
EXTT13=
EXTT14=
PLAYORDER=
